<?xml version="1.0" standalone="no"?>
<!DOCTYPE svg PUBLIC "-//W3C//DTD SVG 20010904//EN"
 "http://www.w3.org/TR/2001/REC-SVG-20010904/DTD/svg10.dtd">
<svg version="1.0" xmlns="http://www.w3.org/2000/svg"
 width="240.000000pt" height="193.000000pt" viewBox="0 0 240.000000 193.000000"
 preserveAspectRatio="xMidYMid meet">

<g transform="translate(0.000000,193.000000) scale(0.100000,-0.100000)"
fill="#000000" stroke="none">
<path d="M285 1907 c-116 -39 -199 -110 -246 -212 -92 -196 -5 -424 197 -517
41 -19 66 -23 149 -23 89 0 107 3 161 28 34 16 80 48 103 71 l41 42 -24 24
-25 23 -42 -38 c-64 -58 -121 -80 -209 -80 -124 0 -219 59 -278 170 -23 43
-27 62 -27 140 0 75 4 97 23 133 84 158 253 220 406 149 62 -29 75 -27 97 14
8 15 -1 22 -55 49 -53 26 -80 33 -148 36 -53 3 -98 -1 -123 -9z"/>
<path d="M381 1788 c-1 -22 -6 -28 -23 -28 -21 -1 -21 -2 -5 -11 14 -8 15 -14
6 -32 -12 -21 -11 -21 8 -5 18 17 20 17 37 0 18 -16 18 -16 7 5 -9 18 -8 24 6
32 16 9 16 10 -4 11 -16 0 -23 7 -26 28 l-4 27 -2 -27z"/>
<path d="M1326 1801 c-4 -7 -5 -15 -2 -18 9 -9 19 4 14 18 -4 11 -6 11 -12 0z"/>
<path d="M722 1754 c-31 -22 -26 -63 10 -84 25 -13 29 -13 45 3 17 17 16 17
-13 11 -24 -5 -33 -2 -38 11 -11 30 3 55 30 55 14 0 22 4 19 10 -9 14 -27 12
-53 -6z"/>
<path d="M932 1723 c-11 -26 -19 -49 -17 -51 2 -2 12 3 24 10 17 10 25 10 41
0 31 -19 32 -15 5 38 -14 28 -27 50 -29 50 -2 0 -13 -21 -24 -47z m33 -3 c3
-5 1 -10 -4 -10 -6 0 -11 5 -11 10 0 6 2 10 4 10 3 0 8 -4 11 -10z"/>
<path d="M818 1753 c18 -4 22 -11 22 -44 0 -21 5 -39 10 -39 6 0 10 18 10 39
0 33 4 40 23 44 12 2 -3 4 -33 4 -30 0 -45 -2 -32 -4z"/>
<path d="M1030 1716 c0 -45 12 -61 23 -32 3 8 16 16 29 18 17 2 23 9 23 28 0
22 -5 25 -37 28 l-38 3 0 -45z m55 14 c0 -8 -8 -16 -17 -18 -13 -2 -18 3 -18
18 0 15 5 20 18 18 9 -2 17 -10 17 -18z"/>
<path d="M1140 1714 c0 -45 0 -45 33 -42 43 4 51 42 13 60 -14 6 -26 15 -26
20 0 4 -4 8 -10 8 -5 0 -10 -21 -10 -46z m48 -11 c-5 -25 -28 -28 -28 -4 0 12
6 21 16 21 9 0 14 -7 12 -17z"/>
<path d="M1230 1715 c0 -25 5 -45 10 -45 6 0 10 20 10 45 0 25 -4 45 -10 45
-5 0 -10 -20 -10 -45z"/>
<path d="M1290 1715 c0 -25 3 -45 6 -45 3 0 15 11 26 25 11 14 24 25 29 25 5
0 9 -11 9 -25 0 -14 3 -25 8 -25 4 0 7 20 7 45 0 25 -4 45 -8 45 -4 0 -19 -12
-32 -27 l-24 -28 -1 28 c0 15 -4 27 -10 27 -5 0 -10 -20 -10 -45z"/>
</g>
</svg>
