<?xml version="1.0" standalone="no"?>
<!DOCTYPE svg PUBLIC "-//W3C//DTD SVG 20010904//EN"
 "http://www.w3.org/TR/2001/REC-SVG-20010904/DTD/svg10.dtd">
<svg version="1.0" xmlns="http://www.w3.org/2000/svg"
 width="512.000000pt" height="512.000000pt" viewBox="0 0 512.000000 512.000000"
 preserveAspectRatio="xMidYMid meet">

<g transform="translate(0.000000,512.000000) scale(0.100000,-0.100000)"
fill="#000000" stroke="none">
<path d="M190 5111 c-69 -21 -130 -73 -166 -141 -18 -33 -19 -71 -22 -595 -3
-604 -2 -614 49 -685 57 -79 143 -110 301 -110 l78 0 0 -729 0 -729 -100 -173
c-58 -101 -100 -185 -100 -200 0 -38 24 -63 115 -117 l80 -48 0 -450 0 -449
-125 -5 c-137 -6 -165 -16 -223 -74 -64 -64 -72 -93 -72 -266 0 -140 2 -159
22 -195 25 -47 74 -95 123 -121 34 -18 113 -19 2410 -19 l2375 0 40 22 c47 25
95 74 121 123 16 30 19 58 19 190 0 173 -8 202 -72 266 -58 58 -86 68 -223 74
l-125 5 -3 1003 -2 1002 57 -7 c155 -21 232 -3 299 69 65 68 69 85 69 278 0
193 -4 210 -69 278 -66 71 -142 88 -293 69 l-63 -8 0 106 0 105 78 0 c158 0
244 31 301 110 51 71 52 81 49 685 -3 524 -4 562 -22 595 -26 49 -74 98 -121
123 l-40 22 -2360 2 c-1298 1 -2371 -2 -2385 -6z m4731 -190 l29 -29 0 -532
c0 -595 2 -580 -68 -599 -52 -15 -4592 -15 -4644 0 -70 19 -68 4 -68 599 l0
532 29 29 29 29 2332 0 2332 0 29 -29z m-3901 -1673 l-1 -333 -123 -215 c-96
-167 -128 -215 -142 -213 -11 1 -34 5 -52 9 -28 6 -37 2 -67 -31 l-35 -36 0
575 0 576 210 0 210 0 0 -332z m260 4 l0 -329 -154 -277 c-84 -152 -156 -279
-159 -282 -6 -6 -47 18 -47 27 0 4 61 113 135 243 l135 236 0 355 0 355 45 0
45 0 0 -328z m680 243 l0 -85 -58 0 c-68 0 -97 -20 -107 -74 -4 -19 -5 -162
-3 -318 5 -317 10 -344 75 -438 83 -118 194 -178 345 -187 l86 -6 4 -144 c3
-144 3 -145 31 -169 28 -24 31 -24 227 -24 196 0 199 0 227 24 28 24 28 25 31
169 l4 144 86 6 c155 9 265 71 348 194 38 57 53 99 69 196 l6 37 202 0 c186
-1 233 -5 592 -53 l390 -53 3 -1017 2 -1017 -762 0 -763 0 55 36 c87 57 139
103 187 165 l45 57 107 4 c97 3 113 6 173 36 73 36 124 87 160 161 33 66 33
216 0 282 -51 104 -160 184 -267 196 l-45 6 0 59 c0 49 -4 63 -25 83 l-24 25
-801 0 -801 0 -24 -25 -25 -24 0 -230 c0 -166 4 -250 15 -301 43 -203 165
-380 340 -491 l60 -39 -762 0 -763 0 0 400 c0 220 2 400 4 400 2 0 17 -7 32
-15 40 -21 69 -19 98 8 35 31 416 696 416 725 0 13 -7 36 -16 52 l-17 28 167
299 166 300 0 352 0 351 255 0 255 0 0 -85z m1028 3 l-3 -83 -425 0 -425 0 -3
83 -3 82 431 0 431 0 -3 -82z m1532 -36 l0 -117 -402 -53 c-370 -49 -419 -53
-595 -52 l-193 0 0 44 c0 53 -14 94 -38 112 -9 8 -43 14 -74 14 l-58 0 0 85 0
85 680 0 680 0 0 -118z m-1362 -464 c-4 -270 -6 -283 -73 -356 -23 -27 -56
-48 -91 -62 -52 -19 -77 -20 -434 -20 -357 0 -382 1 -434 20 -35 14 -68 35
-91 62 -67 73 -69 86 -73 356 l-4 242 602 0 602 0 -4 -242z m1767 192 c18 -18
20 -36 23 -148 3 -138 -4 -166 -48 -190 -22 -13 -84 -6 -540 55 l-515 68 -3
53 c-2 28 -2 52 0 53 36 10 1012 136 1033 133 16 -2 39 -13 50 -24z m-1255
-160 l0 -40 -170 0 -170 0 0 40 0 40 170 0 170 0 0 -40z m-1022 -727 l3 -83
-91 0 -90 0 0 78 c0 43 3 82 7 86 4 4 43 5 88 4 l80 -3 3 -82z m-1803 -72 c55
-33 100 -62 99 -66 -2 -19 -290 -505 -299 -505 -15 1 -205 114 -207 124 -3 14
286 506 297 506 5 -1 55 -27 110 -59z m2393 -803 c-4 -164 -8 -202 -26 -251
-72 -197 -223 -337 -417 -387 -111 -29 -359 -29 -470 0 -194 50 -345 190 -417
387 -18 49 -22 87 -26 251 l-4 192 682 0 682 0 -4 -192z m248 3 c63 -29 89
-72 89 -151 0 -53 -5 -71 -24 -99 -29 -40 -91 -70 -145 -71 -32 0 -37 3 -31
18 18 46 35 156 35 235 0 99 3 101 76 68z m1425 -934 c31 -24 39 -56 39 -162
0 -104 -1 -107 -29 -136 l-29 -29 -2332 0 -2332 0 -29 29 c-28 29 -29 32 -29
136 0 106 8 138 39 162 23 18 4679 18 4702 0z"/>
<path d="M2423 4845 c-169 -46 -325 -211 -362 -383 -48 -228 64 -462 271 -564
157 -78 299 -78 456 0 208 103 319 335 271 564 -37 174 -194 338 -366 383 -71
19 -201 18 -270 0z m282 -186 c99 -48 176 -154 191 -262 l7 -47 -141 0 -140 0
-37 109 c-20 60 -45 117 -56 127 -31 28 -87 24 -115 -10 -30 -34 -30 -55 1
-146 14 -40 25 -75 25 -77 0 -2 -50 -3 -111 -3 l-112 0 7 46 c17 128 116 246
238 283 59 18 187 8 243 -20z m136 -497 c-18 -33 -101 -103 -149 -124 -36 -17
-67 -21 -132 -21 -101 0 -155 20 -225 84 -91 84 -105 79 225 79 278 0 290 -1
281 -18z"/>
<path d="M664 4676 c-60 -19 -130 -71 -170 -124 -97 -132 -81 -328 37 -442
167 -162 440 -114 540 94 108 226 -41 474 -291 483 -43 2 -93 -3 -116 -11z
m192 -181 c45 -27 84 -90 84 -138 0 -33 -24 -94 -48 -121 -23 -26 -90 -56
-126 -56 -52 0 -114 38 -142 86 -22 37 -26 54 -22 99 11 128 142 195 254 130z"/>
<path d="M3525 4665 l-25 -24 0 -286 0 -287 29 -29 29 -29 532 0 c545 0 558 1
587 39 9 12 12 93 13 304 l0 288 -25 24 -24 25 -546 0 -546 0 -24 -25z m995
-315 l0 -170 -425 0 -425 0 0 170 0 170 425 0 425 0 0 -170z"/>
<path d="M1330 4598 c-55 -29 -64 -95 -18 -138 19 -18 35 -20 140 -20 116 0
120 1 143 26 32 34 32 75 1 111 -23 27 -28 28 -133 31 -74 2 -116 -1 -133 -10z"/>
<path d="M1343 4263 c-27 -5 -63 -48 -63 -75 0 -27 26 -74 45 -82 9 -3 68 -6
131 -6 109 0 116 1 139 25 32 31 32 75 1 112 -23 26 -28 27 -127 29 -57 1
-114 0 -126 -3z"/>
<path d="M394 416 c-35 -15 -59 -64 -49 -96 4 -11 16 -30 28 -40 18 -18 35
-20 139 -20 113 0 120 1 143 25 34 33 34 83 -1 116 -23 22 -35 24 -127 27 -70
1 -112 -2 -133 -12z"/>
<path d="M904 416 c-20 -9 -35 -25 -42 -45 -13 -36 -8 -56 21 -88 l20 -23
1657 0 1657 0 20 22 c29 33 34 53 21 89 -22 63 80 59 -1700 59 -1344 -1 -1628
-3 -1654 -14z"/>
<path d="M4500 423 c-61 -22 -79 -95 -35 -138 23 -24 30 -25 143 -25 105 0
121 2 140 20 47 44 32 118 -29 139 -32 11 -191 14 -219 4z"/>
</g>
</svg>
