<?xml version="1.0" encoding="UTF-8" standalone="no"?>
<svg
   version="1.1"
   width="278.45999"
   height="60.222099"
   id="svg7"
   viewBox="0 0 278.45999 60.222099"
   sodipodi:docname="45d9606cd7014377cb13133f298ccfa7.cdr"
   xmlns:inkscape="http://www.inkscape.org/namespaces/inkscape"
   xmlns:sodipodi="http://sodipodi.sourceforge.net/DTD/sodipodi-0.dtd"
   xmlns="http://www.w3.org/2000/svg"
   xmlns:svg="http://www.w3.org/2000/svg">
  <defs
     id="defs11" />
  <sodipodi:namedview
     id="namedview9"
     pagecolor="#ffffff"
     bordercolor="#666666"
     borderopacity="1.0"
     inkscape:pageshadow="2"
     inkscape:pageopacity="0.0"
     inkscape:pagecheckerboard="0" />
  <g
     id="Layer1000"
     transform="translate(-0.5699,-0.1889)">
    <path
       d="m 54.7945,35.3554 v 18.351 H 52.4499 V 50.55 c -0.9883,1.2037 -2.0916,2.1081 -3.3214,2.7071 -1.2241,0.599 -2.5687,0.8986 -4.0228,0.8986 -2.5859,0 -4.7983,-0.9388 -6.6314,-2.8166 -1.8333,-1.8836 -2.747,-4.1643 -2.747,-6.86 0,-2.6325 0.9251,-4.8903 2.7757,-6.7621 1.8446,-1.8721 4.0687,-2.8109 6.6718,-2.8109 1.4998,0 2.8561,0.3168 4.0744,0.9502 1.2124,0.6337 2.2813,1.59 3.2007,2.8743 v -3.3752 z m -9.4358,1.8317 c -1.3104,0 -2.5228,0.3223 -3.6261,0.9675 -1.109,0.6394 -1.9883,1.5437 -2.6433,2.7073 -0.6552,1.1634 -0.9828,2.396 -0.9828,3.6978 0,1.2844 0.3276,2.517 0.9886,3.6921 0.6607,1.175 1.5457,2.0909 2.6605,2.7418 1.1148,0.6566 2.3101,0.9849 3.5859,0.9849 1.2817,0 2.5055,-0.3226 3.655,-0.9734 1.1547,-0.6509 2.0399,-1.5264 2.6605,-2.6381 0.6207,-1.1059 0.9311,-2.3558 0.9311,-3.7439 0,-2.1139 -0.6956,-3.8822 -2.0918,-5.305 -1.391,-1.4228 -3.1034,-2.131 -5.1376,-2.131 z M 74.4622,53.7064 H 71.9966 L 65.8133,40.326 59.7276,53.7064 h -2.5225 l 8.3612,-18.351 h 0.4197 z m 17.6255,-6.0826 1.9883,1.0484 c -0.6552,1.2731 -1.4065,2.3056 -2.264,3.0873 -0.8549,0.7791 -1.8157,1.3778 -2.8848,1.7858 -1.0744,0.4098 -2.2815,0.6104 -3.632,0.6104 -2.9998,0 -5.3387,-0.9792 -7.0281,-2.9376 -1.6894,-1.9582 -2.5342,-4.1701 -2.5342,-6.6354 0,-2.3212 0.7216,-4.3925 2.1492,-6.2091 1.8135,-2.3073 4.2411,-3.4675 7.2808,-3.4675 3.1321,0 5.6343,1.1894 7.5054,3.5538 1.3238,1.6729 2.0053,3.7555 2.0285,6.261 H 78.1463 c 0.0462,2.1256 0.7298,3.8652 2.046,5.2186 1.3214,1.3592 2.9536,2.039 4.8903,2.039 0.9366,0 1.8506,-0.1614 2.7356,-0.484 0.8847,-0.3223 1.6377,-0.7489 2.2582,-1.2843 0.6206,-0.5356 1.293,-1.3938 2.0113,-2.5864 z m 0.023,-4.9419 c -0.3162,-1.2614 -0.7741,-2.265 -1.3793,-3.0182 -0.6071,-0.7557 -1.4077,-1.3592 -2.402,-1.82 -0.9943,-0.4608 -2.04,-0.6913 -3.1318,-0.6913 -1.8102,0 -3.3609,0.5772 -4.6605,1.7336 -0.9527,0.8477 -1.6667,2.1084 -2.155,3.7959 z m 20.8695,-14.4904 h 2.3109 v 9.8495 c 1.45,-2.0967 3.5402,-3.145 6.2645,-3.145 2.6227,0 4.825,0.9058 6.5991,2.7186 1.7769,1.8154 2.6679,4.1357 2.6679,6.9753 0,2.8051 -0.8953,5.1036 -2.6906,6.9063 -1.7954,1.8025 -3.9649,2.7014 -6.514,2.7014 -2.7867,0 -4.8996,-1.106 -6.3269,-3.3178 v 9.452 h -2.3109 v -9.452 c -1.4049,2.2233 -3.5345,3.335 -6.3779,3.335 -2.5037,0 -4.655,-0.9003 -6.4518,-2.7014 -1.7997,-1.8042 -2.7019,-4.1069 -2.7019,-6.9235 0,-2.8396 0.891,-5.1596 2.6682,-6.9753 1.7738,-1.8125 3.9761,-2.7186 6.5988,-2.7186 2.781,0 4.871,1.0483 6.2646,3.145 z m 2.2427,16.7152 c 0,2.1889 0.6177,3.9054 1.8468,5.1553 1.2291,1.2498 2.6396,1.8718 4.231,1.8718 2.1696,0 3.9102,-0.7303 5.217,-2.1887 1.3094,-1.4613 1.9601,-3.2198 1.9601,-5.276 0,-2.1198 -0.6928,-3.887 -2.0677,-5.2877 -1.3779,-1.4037 -3.0305,-2.1082 -4.9561,-2.1082 -1.7392,0 -3.2107,0.6297 -4.4185,1.8836 -1.2047,1.2511 -1.8126,3.237 -1.8126,5.9499 z M 99.7937,44.4863 c 0,2.0448 0.649,3.7987 1.9486,5.2588 1.2997,1.4596 3.0417,2.1887 5.2165,2.1887 0.7535,0 1.5639,-0.1961 2.4245,-0.5818 0.8606,-0.3857 1.5562,-0.8771 2.0787,-1.4687 0.5248,-0.5944 0.9244,-1.2726 1.1896,-2.0447 0.2669,-0.7769 0.3967,-1.9065 0.3967,-3.4042 0,-2.373 -0.6078,-4.1978 -1.824,-5.4604 -1.2191,-1.2654 -2.6906,-1.9008 -4.4126,-1.9008 -1.9371,0 -3.5899,0.7043 -4.962,2.1082 -1.3692,1.4005 -2.056,3.1736 -2.056,5.3049 z m 32.8369,-9.1309 h 13.9823 v 2.039 h -5.9815 v 16.312 h -2.3443 v -16.312 h -5.6565 z m 16.6308,0 h 2.2559 v 3.3752 c 0.8958,-1.2843 1.9247,-2.2408 3.0912,-2.8743 1.1664,-0.6332 2.466,-0.9502 3.9039,-0.9502 2.505,0 4.6452,0.939 6.4255,2.8109 1.7802,1.8716 2.6707,4.1296 2.6707,6.7621 0,2.6957 -0.8833,4.9781 -2.6485,6.86 -1.7623,1.879 -3.8929,2.8166 -6.387,2.8166 -1.3989,0 -2.6887,-0.3032 -3.8652,-0.9101 -1.1786,-0.6078 -2.2394,-1.5148 -3.1906,-2.7186 v 9.884 h -2.2559 z m 9.0853,1.8317 c -1.9632,0 -3.6101,0.7097 -4.9494,2.131 -1.342,1.4238 -2.0125,3.1911 -2.0125,5.305 0,1.3881 0.2999,2.6375 0.8958,3.7439 0.5983,1.1108 1.4536,1.9886 2.5658,2.6381 1.116,0.6518 2.2946,0.9734 3.5278,0.9734 1.2164,0 2.3601,-0.3304 3.434,-0.9849 1.0713,-0.6526 1.9247,-1.5668 2.5603,-2.7418 0.6356,-1.1746 0.951,-2.4077 0.951,-3.6921 0,-1.3018 -0.3156,-2.5347 -0.9455,-3.6978 -0.6303,-1.1633 -1.4785,-2.0648 -2.5438,-2.7073 -1.0634,-0.6416 -2.2284,-0.9675 -3.4835,-0.9675 z m 28.3677,10.4367 1.2288,1.0484 c -0.6549,1.2731 -0.6473,2.3058 -1.5048,3.0873 -0.8544,0.7791 -1.8157,1.3781 -2.8848,1.7858 -1.0739,0.4098 -2.2814,0.6104 -3.6318,0.6104 -2.9998,0 -5.3389,-0.9794 -7.0281,-2.9376 -1.6894,-1.9582 -2.5344,-4.1701 -2.5344,-6.6354 0,-2.3212 0.7216,-4.3927 2.1492,-6.2091 1.8133,-2.3073 4.2411,-3.4675 7.2811,-3.4675 3.132,0 5.6342,1.1894 7.5051,3.5538 1.3238,1.6727 2.0055,3.7555 2.0285,6.261 H 172.773 c 0.0459,2.1256 0.73,3.8652 2.0457,5.2186 1.3214,1.359 2.9536,2.039 4.8905,2.039 0.9367,0 1.8504,-0.1614 2.7354,-0.484 0.885,-0.3225 1.638,-0.7489 2.2583,-1.2843 0.6205,-0.5354 1.2931,-1.3938 2.0115,-2.5864 z m 0.0229,-4.9419 c -0.3161,-1.2614 -0.7745,-2.2652 -1.3792,-3.0182 -0.6072,-0.7557 -1.408,-1.3594 -2.4023,-1.82 -0.9938,-0.4606 -2.0399,-0.6913 -3.1315,-0.6913 -1.8104,0 -3.3614,0.5775 -4.6606,1.7336 -0.9529,0.8477 -1.6666,2.1084 -2.1549,3.7959 z m 7.651,-7.3265 v 13.5934 l 13.4698,-13.5934 h 0.1842 v 18.351 h -2.3449 V 40.2168 l -13.3665,13.4896 h -0.2872 v -18.351 z m -0.3104,-7.3959 h 2.2069 c 0.385,0.5876 0.8962,1.0254 1.54,1.319 0.6377,0.2939 1.4079,0.4436 2.2927,0.4436 0.9024,0 1.6322,-0.1325 2.1836,-0.3917 0.5519,-0.2592 1.0749,-0.7142 1.5689,-1.3709 h 2.1378 c -0.247,1.0139 -0.879,1.8604 -1.8905,2.5402 -1.017,0.6796 -2.3561,1.0194 -4.0168,1.0194 -1.6492,0 -2.9941,-0.334 -4.0343,-1.0021 -1.0459,-0.6682 -1.7068,-1.5206 -1.9883,-2.5575 z m 18.5185,23.7424 7.0682,-16.3465 h 1.2298 l 7.0281,16.3465 h 2.1954 v 4.3546 h -2.2757 v -2.3501 h -15.1368 v 2.4537 h -2.3446 v -4.4582 z m 7.6428,-12.6545 -5.3559,12.6545 h 10.4935 z"
       style="fill:#00af69;fill-rule:evenodd"
       id="path2" />
    <path
       d="m 232.7648,35.3028 h 46.2651 V 53.7296 H 232.7648 Z M 35.7615,10.9545 h 9.5015 c 2.0536,0 3.7337,-1.6801 3.7337,-3.7337 V 0.3802 c 0,-0.1052 -0.0861,-0.1913 -0.1913,-0.1913 h -9.3103 c -2.0536,0 -3.7336,1.6801 -3.7336,3.7337 z M 11.4837,5.8832 h 15.7836 c 3.4114,0 6.2022,2.7908 6.2022,6.2021 v 11.3629 c 0,0.1751 -0.143,0.3181 -0.3181,0.3181 H 17.6859 c -3.4114,0 -6.2022,-2.7908 -6.2022,-6.2022 z M 0.5699,26.9198 h 23.7318 c 5.1292,0 9.3258,4.1966 9.3258,9.3258 v 17.0849 c 0,0.2631 -0.2152,0.4783 -0.4782,0.4783 H 9.8957 c -5.1292,0 -9.3258,-4.1966 -9.3258,-9.3258 z m 35.4288,4.0434 h 15.0162 c 3.2454,0 5.9006,-2.6553 5.9006,-5.9006 V 14.252 c 0,-0.1664 -0.136,-0.3025 -0.3025,-0.3025 H 41.8993 c -3.2454,0 -5.9006,2.6553 -5.9006,5.9006 z m 212.9404,8.8585 h 0.3687 l 3.3599,10.1271 h -1.3364 l -2.4637,-7.4381 -3.8351,7.4381 h -0.2372 l -3.8348,-7.4699 -2.464,7.4699 h -1.3335 l 3.3946,-10.1271 h 0.3464 l 4.0192,7.9212 z m 15.2988,2.1041 -1.0148,0.6423 c -0.8807,-1.1825 -2.083,-1.7739 -3.6069,-1.7739 -1.2179,0 -2.2296,0.3975 -3.0355,1.189 -0.8025,0.7915 -1.2054,1.7513 -1.2054,2.8828 0,0.7375 0.1841,1.4305 0.5557,2.079 0.3688,0.6485 0.8779,1.1537 1.524,1.5132 0.6435,0.3591 1.368,0.537 2.1705,0.537 1.4677,0 2.6669,-0.5911 3.5976,-1.7736 l 1.0148,0.6801 c -0.4777,0.7279 -1.1179,1.2906 -1.9204,1.6942 -0.8058,0.4005 -1.7207,0.6009 -2.7482,0.6009 -1.5804,0 -2.8886,-0.5086 -3.9286,-1.5225 -1.0397,-1.0172 -1.5581,-2.2506 -1.5581,-3.7064 0,-0.9759 0.2434,-1.885 0.7305,-2.7241 0.4843,-0.8393 1.1526,-1.494 2.0017,-1.9644 0.8528,-0.4706 1.8021,-0.7056 2.8545,-0.7056 0.6618,0 1.2991,0.1016 1.9144,0.3051 0.6119,0.2035 1.1334,0.4703 1.5612,0.7977 0.4312,0.3274 0.7934,0.7439 1.093,1.2492 z m 2.4546,-2.1041 h 1.2739 v 4.2658 l 4.6344,-4.2658 h 1.7552 l -5.0309,4.6218 5.4336,5.5053 h -1.8114 l -4.578,-4.6822 -0.4029,0.3625 v 4.3197 h -1.2739 z"
       style="fill:#00af69;fill-rule:evenodd"
       id="path4" />
  </g>
</svg>
